<svg width="24" height="24" viewBox="0 0 24 24" fill="none" xmlns="http://www.w3.org/2000/svg">
<path d="M20.3094 16.8105C18.6479 19.6741 15.5494 21.6 12 21.6C6.69851 21.6 2.4 17.3015 2.4 12C2.4 6.69851 6.69851 2.4 12 2.4C15.5526 2.4 18.6543 4.33011 20.3147 7.19789L22.3923 5.99473C20.3157 2.41159 16.4397 0 12 0C5.37313 0 0 5.37313 0 12C0 18.6279 5.37313 24 12 24C16.4376 24 20.3115 21.5916 22.3881 18.0105L20.3094 16.8105Z" fill="white" />
<path d="M23.9999 10.8H14.0764C13.6613 10.0836 12.888 9.59999 11.9999 9.59999C10.6745 9.59999 9.59988 10.6746 9.59988 12C9.59988 13.3254 10.6745 14.4 11.9999 14.4C12.888 14.4 13.6613 13.9164 14.0764 13.2H23.9999V10.8Z" fill="white" />
</svg>