<svg width="106" height="24" viewBox="0 0 106 24" fill="none" xmlns="http://www.w3.org/2000/svg">
<g clip-path="url(#clip0_752_16720)">
<path d="M43.122 16.0478C42.6848 16.642 42.1169 17.1234 41.4184 17.4932C40.7199 17.863 39.8812 18.0485 38.9025 18.0485C38.0586 18.0485 37.28 17.9052 36.5668 17.6186C35.8535 17.3321 35.2382 16.9306 34.723 16.4155C34.2078 15.9003 33.8033 15.285 33.5125 14.5717C33.2207 13.8585 33.0753 13.0746 33.0753 12.2202C33.0753 11.3552 33.2238 10.5661 33.5209 9.85286C33.818 9.1396 34.2289 8.52959 34.7557 8.02494C35.2814 7.52029 35.9041 7.12626 36.6226 6.84496C37.3411 6.56366 38.1229 6.42353 38.9668 6.42353C39.3418 6.42353 39.7222 6.46041 40.1078 6.5331C40.4934 6.6058 40.8632 6.71537 41.2171 6.86076C41.5711 7.0072 41.8946 7.18631 42.1864 7.40018C42.4783 7.61405 42.7279 7.86164 42.9366 8.14188L41.7176 9.07955C41.4468 8.70448 41.0633 8.39474 40.5692 8.15031C40.074 7.90589 39.5399 7.78262 38.9678 7.78262C38.322 7.78262 37.7415 7.89957 37.2252 8.13451C36.71 8.3684 36.2697 8.68868 35.9051 9.09535C35.5406 9.50202 35.2593 9.97296 35.0612 10.5092C34.8632 11.0455 34.7641 11.6165 34.7641 12.2202C34.7641 12.845 34.86 13.4286 35.0528 13.9702C35.2456 14.5117 35.5216 14.9837 35.8809 15.384C36.2402 15.7854 36.6774 16.1004 37.1936 16.3291C37.7088 16.5587 38.2851 16.6725 38.9204 16.6725C39.5452 16.6725 40.113 16.5472 40.624 16.2975C41.1339 16.0478 41.5564 15.6832 41.8893 15.2039L43.122 16.0478Z" fill="white" />
<path d="M44.6065 11.1877C44.5959 10.8748 44.5801 10.5988 44.5601 10.3596H45.9508C45.9719 10.5472 45.9877 10.7631 45.9972 11.0086C46.0077 11.253 46.013 11.4543 46.013 11.6102H46.0604C46.269 11.173 46.5735 10.8211 46.9749 10.5556C47.3763 10.2901 47.8261 10.1573 48.3266 10.1573C48.5552 10.1573 48.748 10.1784 48.905 10.2195L48.8428 11.5786C48.6342 11.527 48.4109 11.5006 48.1707 11.5006C47.8167 11.5006 47.509 11.5659 47.2488 11.6955C46.9886 11.8262 46.7726 12 46.6009 12.2191C46.4291 12.4383 46.3016 12.6911 46.2184 12.9767C46.1352 13.2632 46.093 13.5624 46.093 13.8753V17.7661H44.6244V11.9536C44.6223 11.7556 44.617 11.5006 44.6065 11.1877Z" fill="white" />
<path d="M56.9202 14.0007C56.9202 14.0839 56.9202 14.1672 56.9202 14.2504C56.9202 14.3336 56.915 14.4169 56.9044 14.5001H51.013C51.0235 14.8109 51.093 15.1027 51.2237 15.3766C51.3543 15.6506 51.5281 15.8887 51.7473 16.091C51.9664 16.2922 52.2182 16.4502 52.5048 16.564C52.7914 16.6778 53.0958 16.7347 53.4193 16.7347C53.9197 16.7347 54.3517 16.6251 54.7162 16.407C55.0807 16.1879 55.3673 15.9224 55.5759 15.6105L56.6073 16.4386C56.2112 16.9633 55.7455 17.35 55.2093 17.5986C54.673 17.8462 54.0767 17.9705 53.4203 17.9705C52.8577 17.9705 52.3373 17.8767 51.8579 17.6892C51.3785 17.5017 50.9677 17.2383 50.6231 16.9001C50.2797 16.5619 50.0079 16.1531 49.8109 15.6737C49.6128 15.1944 49.5137 14.6634 49.5137 14.0797C49.5137 13.5066 49.6107 12.9777 49.8035 12.4941C49.9963 12.0095 50.2649 11.5954 50.6094 11.252C50.954 10.9085 51.3617 10.6399 51.8305 10.4471C52.3004 10.2543 52.8061 10.1584 53.3497 10.1584C53.8923 10.1584 54.3854 10.2469 54.83 10.4239C55.2735 10.6009 55.6497 10.8558 55.9573 11.1898C56.2649 11.5238 56.503 11.9273 56.6695 12.4003C56.837 12.8723 56.9202 13.4065 56.9202 14.0007ZM55.42 13.4065C55.4094 13.1147 55.3599 12.8418 55.2714 12.5858C55.1829 12.3308 55.0523 12.1096 54.8806 11.922C54.7088 11.7345 54.495 11.586 54.24 11.4764C53.985 11.3668 53.6848 11.312 53.3413 11.312C53.0284 11.312 52.7345 11.3668 52.4584 11.4764C52.1824 11.586 51.9432 11.7345 51.7399 11.922C51.5366 12.1096 51.3701 12.3308 51.2395 12.5858C51.1088 12.8407 51.034 13.1147 51.013 13.4065H55.42Z" fill="white" />
<path d="M64.8578 16.5946C64.5765 17.0423 64.1941 17.3837 63.7095 17.6176C63.2248 17.8515 62.717 17.9695 62.186 17.9695C61.6129 17.9695 61.0977 17.8683 60.6394 17.665C60.1811 17.4616 59.7902 17.1835 59.4679 16.8295C59.1444 16.4755 58.8947 16.0583 58.7177 15.5789C58.5407 15.0996 58.4522 14.5896 58.4522 14.0481C58.4522 13.5066 58.5407 12.9988 58.7177 12.5247C58.8947 12.0506 59.1476 11.6365 59.4752 11.2825C59.8029 10.9285 60.1969 10.6525 60.6552 10.4544C61.1135 10.2564 61.6182 10.1573 62.1713 10.1573C62.775 10.1573 63.3017 10.2848 63.7495 10.5398C64.1973 10.7947 64.5513 11.1045 64.8125 11.469H64.8441V5.9526H66.3128V17.7661H64.8905V16.5946H64.8578ZM59.983 14.0555C59.983 14.3979 60.0347 14.7308 60.139 15.0522C60.2433 15.3745 60.3992 15.6601 60.6078 15.9087C60.8164 16.1584 61.0714 16.3575 61.3737 16.5082C61.6761 16.6588 62.0301 16.7336 62.4368 16.7336C62.8118 16.7336 63.1532 16.6609 63.4598 16.5155C63.7674 16.3702 64.0298 16.1753 64.2489 15.9308C64.468 15.6864 64.6366 15.404 64.7567 15.0817C64.8768 14.7603 64.9369 14.4221 64.9369 14.0692C64.9369 13.7162 64.8768 13.3781 64.7567 13.0567C64.6366 12.7354 64.468 12.4488 64.2489 12.2002C64.0298 11.9505 63.7674 11.7535 63.4598 11.6081C63.1521 11.4627 62.8118 11.39 62.4368 11.39C62.0301 11.39 61.6761 11.4627 61.3737 11.6081C61.0714 11.7535 60.8164 11.9505 60.6078 12.2002C60.3992 12.4499 60.2433 12.7354 60.139 13.0567C60.0347 13.3802 59.983 13.712 59.983 14.0555Z" fill="white" />
<path d="M70.5935 7.6878C70.5935 7.95856 70.4976 8.18297 70.3069 8.35996C70.1162 8.53696 69.8855 8.62546 69.6168 8.62546C69.3482 8.62546 69.1206 8.53485 68.9352 8.35153C68.7487 8.16927 68.656 7.94802 68.656 7.6878C68.656 7.41703 68.7487 7.19052 68.9352 7.00825C69.1216 6.82599 69.3482 6.73433 69.6168 6.73433C69.8855 6.73433 70.1152 6.82599 70.3069 7.00825C70.4976 7.18946 70.5935 7.41703 70.5935 7.6878ZM70.3585 17.7661H68.8899V10.3596H70.3585V17.7661Z" fill="white" />
<path d="M76.546 11.5628H74.577V15.4104C74.577 15.8571 74.6602 16.1763 74.8266 16.368C74.9931 16.5598 75.2586 16.6557 75.6231 16.6557C75.758 16.6557 75.9044 16.642 76.0604 16.6125C76.2163 16.584 76.3575 16.5408 76.4818 16.4839L76.5292 17.6871C76.3522 17.7493 76.1562 17.7988 75.9434 17.8356C75.7295 17.8725 75.5083 17.8904 75.2797 17.8904C74.5812 17.8904 74.0481 17.6976 73.6783 17.312C73.3085 16.9264 73.123 16.348 73.123 15.5779V11.5617H71.7007V10.3596H73.123V8.23459H74.5759V10.3596H76.545V11.5628H76.546Z" fill="white" />
<path d="M83.2499 12.2349C83.094 11.9958 82.8591 11.7946 82.5472 11.6334C82.2343 11.4722 81.9014 11.391 81.5474 11.391C81.1618 11.391 80.8204 11.4637 80.5244 11.6102C80.2273 11.7566 79.9744 11.9515 79.7669 12.196C79.5583 12.4404 79.3992 12.7248 79.2907 13.0472C79.1811 13.3707 79.1263 13.7089 79.1263 14.0629C79.1263 14.4169 79.1811 14.7561 79.2907 15.0785C79.4002 15.4019 79.5583 15.6853 79.7669 15.9298C79.9755 16.1742 80.2304 16.3701 80.5328 16.5155C80.8352 16.662 81.1786 16.7347 81.5642 16.7347C81.9393 16.7347 82.2807 16.662 82.5872 16.5155C82.8949 16.3701 83.1467 16.1721 83.3447 15.9213L84.3288 16.8116C84.0159 17.1761 83.626 17.4606 83.1572 17.6629C82.6884 17.8662 82.1574 17.9673 81.5632 17.9673C80.99 17.9673 80.4612 17.8736 79.9776 17.686C79.4929 17.4985 79.0736 17.2351 78.7196 16.8969C78.3656 16.5587 78.0864 16.15 77.8831 15.6706C77.6798 15.1912 77.5786 14.655 77.5786 14.0608C77.5786 13.4771 77.6777 12.9461 77.8757 12.4667C78.0738 11.9874 78.3498 11.5765 78.7038 11.232C79.0578 10.8885 79.4771 10.623 79.9618 10.4355C80.4464 10.2479 80.97 10.1542 81.5326 10.1542C82.0531 10.1542 82.5714 10.2585 83.0877 10.4671C83.6029 10.6757 84.0116 10.9781 84.314 11.3731L83.2499 12.2349Z" fill="white" />
<path d="M93.2817 14.0471C93.2817 14.6202 93.1806 15.1459 92.9773 15.6253C92.7739 16.1047 92.4926 16.5187 92.1334 16.8674C91.7741 17.2162 91.3495 17.4869 90.8596 17.6797C90.3697 17.8725 89.844 17.9684 89.2814 17.9684C88.7188 17.9684 88.1931 17.8725 87.7032 17.6797C87.2133 17.4869 86.7918 17.2162 86.4378 16.8674C86.0838 16.5187 85.8047 16.1047 85.6013 15.6253C85.398 15.1459 85.2968 14.6202 85.2968 14.0471C85.2968 13.4739 85.398 12.9503 85.6013 12.4762C85.8047 12.0021 86.0828 11.5933 86.4378 11.2499C86.7918 10.9064 87.2133 10.6378 87.7032 10.445C88.1931 10.2522 88.7188 10.1563 89.2814 10.1563C89.844 10.1563 90.3697 10.2532 90.8596 10.445C91.3495 10.6378 91.7741 10.9064 92.1334 11.2499C92.4926 11.5933 92.7739 12.0021 92.9773 12.4762C93.1806 12.9514 93.2817 13.4739 93.2817 14.0471ZM91.7499 14.0555C91.7499 13.7025 91.6951 13.3644 91.5855 13.043C91.4759 12.7217 91.3169 12.4383 91.1072 12.1939C90.8975 11.9494 90.6394 11.7556 90.3318 11.6091C90.0231 11.4637 89.6701 11.391 89.274 11.391C88.8768 11.391 88.5239 11.4637 88.2162 11.6091C87.9076 11.7545 87.6494 11.9494 87.4408 12.1939C87.2322 12.4383 87.0721 12.7206 86.9625 13.043C86.8529 13.3654 86.7982 13.7025 86.7982 14.0555C86.7982 14.4084 86.8529 14.7466 86.9625 15.068C87.0721 15.3903 87.2312 15.6759 87.4408 15.9245C87.6494 16.1742 87.9086 16.3712 88.2162 16.5166C88.5239 16.662 88.8768 16.7347 89.274 16.7347C89.6712 16.7347 90.0241 16.662 90.3318 16.5166C90.6394 16.3712 90.8986 16.1742 91.1072 15.9245C91.3158 15.6748 91.4749 15.3893 91.5855 15.068C91.6951 14.7456 91.7499 14.4084 91.7499 14.0555Z" fill="white" />
<path d="M97.0313 7.6878C97.0313 7.95856 96.9354 8.18297 96.7448 8.35996C96.5541 8.53696 96.3233 8.62546 96.0547 8.62546C95.786 8.62546 95.5584 8.53485 95.373 8.35153C95.1865 8.16927 95.0938 7.94802 95.0938 7.6878C95.0938 7.41703 95.1865 7.19052 95.373 7.00825C95.5595 6.82599 95.786 6.73433 96.0547 6.73433C96.3233 6.73433 96.553 6.82599 96.7448 7.00825C96.9365 7.18946 97.0313 7.41703 97.0313 7.6878ZM96.7974 17.7661H95.3288V10.3596H96.7974V17.7661Z" fill="white" />
<path d="M100.688 10.3596C100.709 10.5472 100.725 10.7579 100.735 10.9928C100.745 11.2267 100.75 11.4227 100.75 11.5786H100.797C100.891 11.3805 101.018 11.1961 101.179 11.0244C101.34 10.8527 101.526 10.702 101.734 10.5714C101.943 10.4407 102.172 10.3396 102.422 10.2669C102.672 10.1942 102.932 10.1573 103.204 10.1573C103.684 10.1573 104.094 10.2385 104.439 10.3997C104.782 10.5608 105.069 10.7768 105.299 11.0476C105.527 11.3184 105.697 11.6365 105.806 12.0011C105.916 12.3656 105.971 12.7565 105.971 13.1726V17.7672H104.502V13.6572C104.502 13.3549 104.479 13.0683 104.432 12.7975C104.384 12.5268 104.299 12.2876 104.173 12.079C104.048 11.8704 103.876 11.704 103.658 11.5786C103.439 11.4532 103.158 11.3911 102.814 11.3911C102.231 11.3911 101.754 11.6123 101.385 12.0548C101.015 12.4973 100.829 13.0883 100.829 13.8279V17.7661H99.3608V11.9536C99.3608 11.7556 99.3555 11.5006 99.345 11.1877C99.3345 10.8748 99.3186 10.5988 99.2976 10.3596H100.688Z" fill="white" />
<path d="M20.3094 16.8105C18.6479 19.6741 15.5494 21.6 12 21.6C6.69851 21.6 2.4 17.3015 2.4 12C2.4 6.69851 6.69851 2.4 12 2.4C15.5526 2.4 18.6543 4.33011 20.3147 7.19789L22.3923 5.99473C20.3157 2.41159 16.4397 0 12 0C5.37313 0 0 5.37313 0 12C0 18.6279 5.37313 24 12 24C16.4376 24 20.3115 21.5916 22.3881 18.0105L20.3094 16.8105Z" fill="white" />
<path d="M23.9999 10.8H14.0764C13.6613 10.0836 12.888 9.59999 11.9999 9.59999C10.6745 9.59999 9.59988 10.6746 9.59988 12C9.59988 13.3254 10.6745 14.4 11.9999 14.4C12.888 14.4 13.6613 13.9164 14.0764 13.2H23.9999V10.8Z" fill="white" />
</g>
<defs>
<clipPath id="clip0_752_16720">
<rect width="106" height="24" fill="white" />
</clipPath>
</defs>
</svg>