<svg width="48" height="48" viewBox="0 0 48 48" fill="none" xmlns="http://www.w3.org/2000/svg">
<circle cx="24" cy="24" r="24" fill="white"/>
<g clip-path="url(#clip0_1006_315)">
<mask id="mask0_1006_315" style="mask-type:luminance" maskUnits="userSpaceOnUse" x="4" y="4" width="40" height="40">
<path d="M43.2044 4.7998H4.80444V43.1998H43.2044V4.7998Z" fill="white"/>
</mask>
<g mask="url(#mask0_1006_315)">
<path fill-rule="evenodd" clip-rule="evenodd" d="M30.2448 34.5887C28.3529 35.7048 26.1961 36.2927 23.9997 36.2912C17.2222 36.2912 11.7084 30.7775 11.7084 24C11.7084 17.2225 17.2222 11.7088 23.9997 11.7088C26.1637 11.7074 28.2898 12.2776 30.1627 13.3618C32.0357 14.4458 33.589 16.0055 34.6655 17.8829L37.0114 16.5338C35.6976 14.2439 33.8026 12.3413 31.5179 11.0184C29.2332 9.69551 26.6397 8.99926 23.9997 9C21.6927 8.99989 19.4169 9.53189 17.3489 10.5546C15.2811 11.5773 13.477 13.0632 12.0769 14.8968C10.677 16.7303 9.7187 18.8621 9.27674 21.1264C8.83478 23.3905 8.92103 25.7262 9.52877 27.9516C10.1365 30.177 11.2494 32.2324 12.7809 33.9576C14.3123 35.683 16.221 37.0318 18.3586 37.8992C20.4963 38.7666 22.8052 39.1294 25.1058 38.9591C27.4065 38.7888 29.6369 38.0903 31.6235 36.9176C33.8593 35.5946 35.7154 33.7163 37.0114 31.4648L34.6655 30.1171C33.6019 31.9638 32.0791 33.5041 30.2448 34.5887ZM26.6158 22.6457C26.3124 22.0595 25.8208 21.5922 25.2201 21.3188C24.6193 21.0454 23.9441 20.9816 23.3028 21.1379C22.6615 21.294 22.0913 21.6611 21.6834 22.1801C21.2757 22.6991 21.054 23.34 21.054 24C21.054 24.6601 21.2757 25.301 21.6834 25.82C22.0913 26.339 22.6615 26.706 23.3028 26.8622C23.9441 27.0184 24.6193 26.9546 25.2201 26.6813C25.8208 26.4078 26.3124 25.9405 26.6158 25.3544H37.5777V22.6457H26.6158Z" fill="#0E0E0F"/>
</g>
</g>
<defs>
<clipPath id="clip0_1006_315">
<rect width="38.4" height="38.4" fill="white" transform="translate(4.7981 4.7998)"/>
</clipPath>
</defs>
</svg>
