<svg width="14" height="14" viewBox="0 0 14 14" fill="none" xmlns="http://www.w3.org/2000/svg">
<path d="M6 1L6 2L8 2L8 1L6 1Z" fill="#B3BEFF"/>
<path d="M2 6H1L1 8H2L2 6Z" fill="#B3BEFF"/>
<path d="M3 8H2L2 9H3L3 8Z" fill="#B3BEFF"/>
<path d="M12 8H11L11 9H12L12 8Z" fill="#B3BEFF"/>
<path d="M11 9H10L10 10H11L11 9Z" fill="#B3BEFF"/>
<path d="M4 9H3L3 10H4L4 9Z" fill="#B3BEFF"/>
<path d="M13 6H12L12 8H13L13 6Z" fill="#B3BEFF"/>
<path d="M1 1L1 5L5 5L5 1L1 1Z" fill="#5B6EDD"/>
<path d="M2 -1.19209e-07L2 1L4 1L4 -2.50267e-08L2 -1.19209e-07Z" fill="#5B6EDD"/>
<path d="M2 5L2 6L4 6L4 5L2 5Z" fill="#5B6EDD"/>
<path d="M1 2H0L-1.30344e-08 4H1L1 2Z" fill="#5B6EDD"/>
<path d="M6 2H5L5 4H6L6 2Z" fill="#5B6EDD"/>
<path d="M9 1L9 5L13 5L13 1L9 1Z" fill="#5B6EDD"/>
<path d="M10 -1.19209e-07L10 1L12 1L12 -2.50267e-08L10 -1.19209e-07Z" fill="#5B6EDD"/>
<path d="M10 5L10 6L12 6L12 5L10 5Z" fill="#5B6EDD"/>
<path d="M9 2H8L8 4H9L9 2Z" fill="#5B6EDD"/>
<path d="M14 2H13L13 4H14L14 2Z" fill="#5B6EDD"/>
<path d="M5 9L5 13L9 13L9 9L5 9Z" fill="#5B6EDD"/>
<path d="M6 8L6 9L8 9L8 8L6 8Z" fill="#5B6EDD"/>
<path d="M6 13L6 14L8 14L8 13L6 13Z" fill="#5B6EDD"/>
<path d="M5 10H4L4 12H5L5 10Z" fill="#5B6EDD"/>
<path d="M10 10H9L9 12H10L10 10Z" fill="#5B6EDD"/>
</svg>
