<svg width="18" height="18" viewBox="0 0 18 18" fill="none" xmlns="http://www.w3.org/2000/svg">
<rect x="3" y="5" width="1" height="1" fill="#5B6EDD"/>
<rect x="3" y="6" width="1" height="1" fill="#5B6EDD"/>
<rect x="3" y="7" width="1" height="1" fill="#5B6EDD"/>
<rect x="3" y="8" width="1" height="1" fill="#5B6EDD"/>
<rect x="7" y="4" width="1" height="1" fill="#5B6EDD"/>
<rect x="4" y="4" width="1" height="1" fill="#5B6EDD"/>
<rect x="7" y="9" width="1" height="1" fill="#5B6EDD"/>
<rect x="4" y="9" width="1" height="1" fill="#5B6EDD"/>
<rect x="4" y="10" width="1" height="1" fill="#5B6EDD"/>
<rect x="6" y="10" width="1" height="1" fill="#5B6EDD"/>
<rect x="4" y="11" width="1" height="1" fill="#5B6EDD"/>
<rect x="5" y="11" width="1" height="1" fill="#5B6EDD"/>
<rect x="8" y="4" width="1" height="1" fill="#5B6EDD"/>
<rect width="1" height="1" transform="matrix(-1 0 0 1 12 6)" fill="#5B6EDD"/>
<rect x="5" y="4" width="1" height="1" fill="#5B6EDD"/>
<rect x="8" y="9" width="1" height="1" fill="#5B6EDD"/>
<rect x="9" y="4" width="1" height="1" fill="#5B6EDD"/>
<rect x="6" y="4" width="1" height="1" fill="#5B6EDD"/>
<rect x="9" y="9" width="1" height="1" fill="#5B6EDD"/>
<rect x="11" y="5" width="1" height="1" fill="#5B6EDD"/>
<rect x="10" y="4" width="1" height="1" fill="#5B6EDD"/>
<rect x="10" y="9" width="1" height="1" fill="#5B6EDD"/>
<rect x="11" y="6" width="1" height="1" fill="#5B6EDD"/>
<rect width="1" height="1" transform="matrix(-1 0 0 1 9 9)" fill="#5B6EDD"/>
<rect x="11" y="7" width="1" height="1" fill="#5B6EDD"/>
<rect x="11" y="8" width="1" height="1" fill="#5B6EDD"/>
<rect x="4" y="5" width="7" height="4" fill="#8F9DED"/>
<rect x="5" y="7" width="1" height="4" fill="#8F9DED"/>
<rect x="6" y="6" width="1" height="4" fill="#8F9DED"/>
<rect width="1" height="1" transform="matrix(-1 0 0 1 16 7)" fill="#49B667"/>
<rect width="3" height="5" transform="matrix(-1 0 0 1 15 7)" fill="#9CFFAA"/>
<rect width="3" height="2" transform="matrix(-1 0 0 1 12 10)" fill="#9CFFAA"/>
<rect x="12" y="10" width="1" height="1" transform="rotate(180 12 10)" fill="#9CFFAA"/>
<rect x="14" y="14" width="1" height="1" transform="rotate(180 14 14)" fill="#9CFFAA"/>
<rect x="14" y="13" width="2" height="1" transform="rotate(180 14 13)" fill="#9CFFAA"/>
<rect width="1" height="1" transform="matrix(-1 0 0 1 16 8)" fill="#49B667"/>
<rect width="1" height="1" transform="matrix(-1 0 0 1 16 9)" fill="#49B667"/>
<rect width="1" height="1" transform="matrix(-1 0 0 1 16 10)" fill="#49B667"/>
<rect width="1" height="1" transform="matrix(-1 0 0 1 16 11)" fill="#49B667"/>
<rect width="1" height="1" transform="matrix(-1 0 0 1 15 6)" fill="#49B667"/>
<rect width="1" height="1" transform="matrix(-1 0 0 1 15 12)" fill="#49B667"/>
<rect width="1" height="1" transform="matrix(-1 0 0 1 15 13)" fill="#49B667"/>
<rect width="1" height="1" transform="matrix(-1 0 0 1 13 13)" fill="#49B667"/>
<rect width="1" height="1" transform="matrix(-1 0 0 1 15 14)" fill="#49B667"/>
<rect width="1" height="1" transform="matrix(-1 0 0 1 14 14)" fill="#49B667"/>
<rect width="1" height="1" transform="matrix(-1 0 0 1 14 6)" fill="#49B667"/>
<rect width="1" height="1" transform="matrix(-1 0 0 1 12 12)" fill="#49B667"/>
<rect width="1" height="1" transform="matrix(-1 0 0 1 13 6)" fill="#49B667"/>
<rect width="1" height="1" transform="matrix(-1 0 0 1 11 12)" fill="#49B667"/>
<rect width="1" height="1" transform="matrix(-1 0 0 1 10 12)" fill="#49B667"/>
<rect width="1" height="1" transform="matrix(-1 0 0 1 9 10)" fill="#49B667"/>
<rect width="1" height="1" transform="matrix(-1 0 0 1 9 11)" fill="#49B667"/>
</svg>
