<svg width="14" height="8" viewBox="0 0 14 8" fill="none" xmlns="http://www.w3.org/2000/svg">
<rect y="6.99995" width="0.999993" height="0.999993" fill="#FF8989"/>
<rect x="0.99707" y="5.99994" width="0.999993" height="0.999993" fill="#FF8989"/>
<rect x="2.00195" y="4.99992" width="0.999993" height="0.999993" fill="#FF8989"/>
<rect x="2.99902" y="3.99992" width="0.999993" height="0.999993" fill="#FF8989"/>
<rect x="4.00098" y="2.99991" width="0.999993" height="0.999993" fill="#FF8989"/>
<rect x="5.00171" y="3.99992" width="0.999993" height="0.999993" fill="#FF8989"/>
<rect x="5.99902" y="4.99992" width="0.999993" height="0.999993" fill="#FF8989"/>
<rect x="7" y="5.99994" width="0.999993" height="0.999993" fill="#FF8989"/>
<rect x="8.00122" y="4.99992" width="0.999993" height="0.999993" fill="#FF8989"/>
<rect x="9.00195" y="3.99992" width="0.999993" height="0.999993" fill="#FF8989"/>
<rect x="9.99902" y="2.99991" width="0.999993" height="0.999993" fill="#FF8989"/>
<rect x="10.9963" y="2.00003" width="0.999993" height="0.999993" fill="#FF8989"/>
<rect x="12.0017" y="1.00002" width="0.999993" height="0.999993" fill="#FF8989"/>
<rect x="12.999" width="0.999993" height="0.999993" fill="#FF8989"/>
<rect x="12.999" y="1.00002" width="0.999993" height="0.999993" fill="#FF8989"/>
<rect x="12.999" y="2.00003" width="0.999993" height="0.999993" fill="#FF8989"/>
<rect x="12.0017" width="0.999993" height="0.999993" fill="#FF8989"/>
<rect x="10.9963" width="0.999993" height="0.999993" fill="#FF8989"/>
</svg>
