<svg width="13" height="11" viewBox="0 0 13 11" fill="none" xmlns="http://www.w3.org/2000/svg">
<path d="M8 8H7V9H8V8Z" fill="#49B667"/>
<path d="M10 8H9V9H10V8Z" fill="#49B667"/>
<path d="M11 8H10V9H11V8Z" fill="#49B667"/>
<path d="M8 7H7V8H8V7Z" fill="#49B667"/>
<path d="M10 6H9V7H10V6Z" fill="#49B667"/>
<path d="M0 7L0 8H1V7H0Z" fill="#49B667"/>
<path d="M1 10V11H2V10H1Z" fill="#49B667"/>
<path d="M2 10V11H3V10H2Z" fill="#49B667"/>
<path d="M3 10V11H4V10H3Z" fill="#49B667"/>
<path d="M4 10V11H5V10H4Z" fill="#49B667"/>
<path d="M5 10V11H6V10H5Z" fill="#49B667"/>
<path d="M6 10V11H7V10H6Z" fill="#49B667"/>
<path d="M7 10V11H8V10H7Z" fill="#49B667"/>
<path d="M8 10V11H9V10H8Z" fill="#49B667"/>
<path d="M9 10V11H10V10H9Z" fill="#49B667"/>
<path d="M10 10V11H11V10H10Z" fill="#49B667"/>
<path d="M11 10V11H12V10H11Z" fill="#49B667"/>
<path d="M12 9V10H13V9H12Z" fill="#49B667"/>
<path d="M12 8V9H13V8H12Z" fill="#49B667"/>
<path d="M12 7V8H13V7H12Z" fill="#49B667"/>
<path d="M12 6V7H13V6H12Z" fill="#49B667"/>
<path d="M12 5V6H13V5H12Z" fill="#49B667"/>
<path d="M12 4V5H13V4H12Z" fill="#49B667"/>
<path d="M12 3V4H13V3H12Z" fill="#49B667"/>
<path d="M12 2V3H13V2H12Z" fill="#49B667"/>
<path d="M0 2L0 3H1V2H0Z" fill="#49B667"/>
<path d="M1 0V1H2V0L1 0Z" fill="#49B667"/>
<path d="M1 1V2L12 2V1L1 1Z" fill="#9CFFAA"/>
<path d="M1 3L1 10H12V3L1 3Z" fill="#9CFFAA"/>
<path d="M2 0V1H3V0L2 0Z" fill="#49B667"/>
<path d="M3 0V1H4V0L3 0Z" fill="#49B667"/>
<path d="M4 0V1H5V0L4 0Z" fill="#49B667"/>
<path d="M5 0V1H6V0L5 0Z" fill="#49B667"/>
<path d="M6 0V1H7V0L6 0Z" fill="#49B667"/>
<path d="M7 0V1H8V0L7 0Z" fill="#49B667"/>
<path d="M8 0V1H9V0L8 0Z" fill="#49B667"/>
<path d="M9 0V1H10V0L9 0Z" fill="#49B667"/>
<path d="M10 0V1H11V0L10 0Z" fill="#49B667"/>
<path d="M11 0V1H12V0L11 0Z" fill="#49B667"/>
<path d="M0 6L0 7H1V6H0Z" fill="#49B667"/>
<path d="M0 5L0 6H1V5H0Z" fill="#49B667"/>
<path d="M0 4L0 5H1V4H0Z" fill="#49B667"/>
<path d="M0 9L0 10H1V9H0Z" fill="#49B667"/>
<path d="M0 3L0 4H1V3H0Z" fill="#49B667"/>
<path d="M0 8L0 9H1V8H0Z" fill="#49B667"/>
<path d="M11 8H10V9H11V8Z" fill="#49B667"/>
<path d="M9 8H8V9H9V8Z" fill="#49B667"/>
<path d="M11 7H10V8H11V7Z" fill="#49B667"/>
<path d="M9 7H8V8H9V7Z" fill="#49B667"/>
<path d="M11 6H10V7H11V6Z" fill="#49B667"/>
<path d="M11 5H10V6H11V5Z" fill="#49B667"/>
<path d="M0 7L0 8H1V7H0Z" fill="#49B667"/>
<path d="M1 10V11H2V10H1Z" fill="#49B667"/>
<path d="M2 10V11H3V10H2Z" fill="#49B667"/>
<path d="M3 10V11H4V10H3Z" fill="#49B667"/>
<path d="M4 10V11H5V10H4Z" fill="#49B667"/>
<path d="M5 10V11H6V10H5Z" fill="#49B667"/>
<path d="M6 10V11H7V10H6Z" fill="#49B667"/>
<path d="M7 10V11H8V10H7Z" fill="#49B667"/>
<path d="M8 10V11H9V10H8Z" fill="#49B667"/>
<path d="M9 10V11H10V10H9Z" fill="#49B667"/>
<path d="M10 10V11H11V10H10Z" fill="#49B667"/>
<path d="M11 10V11H12V10H11Z" fill="#49B667"/>
<path d="M12 9V10H13V9H12Z" fill="#49B667"/>
<path d="M12 8V9H13V8H12Z" fill="#49B667"/>
<path d="M12 7V8H13V7H12Z" fill="#49B667"/>
<path d="M12 6V7H13V6H12Z" fill="#49B667"/>
<path d="M12 5V6H13V5H12Z" fill="#49B667"/>
<path d="M12 4V5H13V4H12Z" fill="#49B667"/>
<path d="M12 3V4H13V3H12Z" fill="#49B667"/>
<path d="M0 2L0 3H1V2H0Z" fill="#49B667"/>
<path d="M1 2V3H2V2H1Z" fill="#49B667"/>
<path d="M2 2V3H3V2H2Z" fill="#49B667"/>
<path d="M3 2V3H4V2H3Z" fill="#49B667"/>
<path d="M4 2V3H5V2H4Z" fill="#49B667"/>
<path d="M5 2V3H6V2H5Z" fill="#49B667"/>
<path d="M6 2V3H7V2H6Z" fill="#49B667"/>
<path d="M7 2V3H8V2H7Z" fill="#49B667"/>
<path d="M8 2V3H9V2H8Z" fill="#49B667"/>
<path d="M9 2V3H10V2H9Z" fill="#49B667"/>
<path d="M10 2V3H11V2H10Z" fill="#49B667"/>
<path d="M11 2V3H12V2H11Z" fill="#49B667"/>
<path d="M12 1V2H13V1H12Z" fill="#49B667"/>
<path d="M0 1L0 2H1V1H0Z" fill="#49B667"/>
<path d="M0 6L0 7H1V6H0Z" fill="#49B667"/>
<path d="M0 5L0 6H1V5H0Z" fill="#49B667"/>
<path d="M0 4L0 5H1V4H0Z" fill="#49B667"/>
<path d="M0 9L0 10H1V9H0Z" fill="#49B667"/>
<path d="M0 3L0 4H1V3H0Z" fill="#49B667"/>
<path d="M0 8L0 9H1V8H0Z" fill="#49B667"/>
<path d="M4.26403 3.89954H3.39746V4.7661H4.26403V3.89954Z" fill="#49B667"/>
<path d="M3.39562 4.76613H2.52905V5.63269H3.39562V4.76613Z" fill="#49B667"/>
<path d="M5.12926 3.89954H4.2627V4.7661H5.12926V3.89954Z" fill="#49B667"/>
<path d="M5.12926 4.76613H4.2627V5.63269H5.12926V4.76613Z" fill="#49B667"/>
<path d="M5.12926 5.63271H4.2627V6.49928H5.12926V5.63271Z" fill="#49B667"/>
<path d="M6.86339 5.63271H5.99683V6.49928H6.86339V5.63271Z" fill="#49B667"/>
<path d="M5.9984 5.63271H5.13184V6.49928H5.9984V5.63271Z" fill="#49B667"/>
<path d="M5.9984 4.76613H5.13184V5.63269H5.9984V4.76613Z" fill="#49B667"/>
<path d="M5.13026 8.23237H5.99683V7.3658H5.13026V8.23237Z" fill="#49B667"/>
<path d="M2.53089 8.23237H3.39746V7.3658H2.53089V8.23237Z" fill="#49B667"/>
<path d="M4.26527 9.09896H5.13184V8.23239H4.26527V9.09896Z" fill="#49B667"/>
<path d="M3.39613 9.09896H4.2627V8.23239H3.39613V9.09896Z" fill="#49B667"/>
<path d="M1.66406 6.49921V7.36578H2.53063V6.49921H1.66406Z" fill="#49B667"/>
<path d="M1.66406 5.63262V6.49919H2.53063V5.63262H1.66406Z" fill="#49B667"/>
<path d="M4.26403 3.89954H3.39746V4.7661H4.26403V3.89954Z" fill="#49B667"/>
<path d="M3.39562 4.76613H2.52905V5.63269H3.39562V4.76613Z" fill="#49B667"/>
<path d="M5.12926 3.89954H4.2627V4.7661H5.12926V3.89954Z" fill="#49B667"/>
<path d="M5.12926 4.76613H4.2627V5.63269H5.12926V4.76613Z" fill="#49B667"/>
<path d="M5.12926 5.63271H4.2627V6.49928H5.12926V5.63271Z" fill="#49B667"/>
<path d="M6.86339 5.63271H5.99683V6.49928H6.86339V5.63271Z" fill="#49B667"/>
<path d="M6.86339 6.49919H5.99683V7.36576H6.86339V6.49919Z" fill="#49B667"/>
<path d="M5.9984 5.63271H5.13184V6.49928H5.9984V5.63271Z" fill="#49B667"/>
<path d="M5.9984 4.76613H5.13184V5.63269H5.9984V4.76613Z" fill="#49B667"/>
<path d="M5.13026 8.23237H5.99683V7.3658H5.13026V8.23237Z" fill="#49B667"/>
<path d="M2.53089 8.23237H3.39746V7.3658H2.53089V8.23237Z" fill="#49B667"/>
<path d="M4.26527 9.09896H5.13184V8.23239H4.26527V9.09896Z" fill="#49B667"/>
<path d="M3.39613 9.09896H4.2627V8.23239H3.39613V9.09896Z" fill="#49B667"/>
<path d="M1.66406 6.49921V7.36578H2.53063V6.49921H1.66406Z" fill="#49B667"/>
<path d="M1.66406 5.63262V6.49919H2.53063V5.63262H1.66406Z" fill="#49B667"/>
</svg>
