<svg width="14" height="12" viewBox="0 0 14 12" fill="none" xmlns="http://www.w3.org/2000/svg">
<rect x="1" width="1" height="1" fill="#ECBF2A"/>
<rect x="1" y="3" width="1" height="1" fill="#ECBF2A"/>
<rect y="1" width="1" height="1" fill="#ECBF2A"/>
<rect x="1" y="1" width="12" height="1" fill="#FFEEB7"/>
<rect x="1" y="2" width="12" height="1" fill="#FFEEB7"/>
<rect y="2" width="1" height="1" fill="#ECBF2A"/>
<rect x="13" y="1" width="1" height="1" fill="#ECBF2A"/>
<rect x="13" y="2" width="1" height="1" fill="#ECBF2A"/>
<rect x="2" width="1" height="1" fill="#ECBF2A"/>
<rect x="2" y="3" width="1" height="1" fill="#ECBF2A"/>
<rect x="3" width="1" height="1" fill="#ECBF2A"/>
<rect x="4" width="1" height="1" fill="#ECBF2A"/>
<rect x="3" y="8" width="1" height="1" fill="#ECBF2A"/>
<rect x="3" y="10" width="1" height="1" fill="#ECBF2A"/>
<rect x="3" y="7" width="1" height="1" fill="#ECBF2A"/>
<rect x="3" y="9" width="1" height="1" fill="#ECBF2A"/>
<rect x="3" y="6" width="1" height="1" fill="#ECBF2A"/>
<rect x="3" y="5" width="1" height="1" fill="#ECBF2A"/>
<rect x="3" y="4" width="1" height="1" fill="#ECBF2A"/>
<rect x="3" y="3" width="1" height="1" fill="#ECBF2A"/>
<rect x="5" y="2" width="1" height="1" fill="#ECBF2A"/>
<rect x="4" y="2" width="1" height="1" fill="#ECBF2A"/>
<rect x="4" y="3" width="6" height="8" fill="#FFEEB7"/>
<rect x="6" y="2" width="1" height="1" fill="#ECBF2A"/>
<rect x="7" y="2" width="1" height="1" fill="#ECBF2A"/>
<rect x="8" y="2" width="1" height="1" fill="#ECBF2A"/>
<rect x="8" y="4" width="1" height="1" fill="#ECBF2A"/>
<rect x="8" y="5" width="1" height="1" fill="#ECBF2A"/>
<rect x="8" y="6" width="1" height="1" fill="#ECBF2A"/>
<rect x="8" y="7" width="1" height="1" fill="#ECBF2A"/>
<rect x="8" y="8" width="1" height="1" fill="#ECBF2A"/>
<rect x="9" y="2" width="1" height="1" fill="#ECBF2A"/>
<rect x="5" y="11" width="1" height="1" fill="#ECBF2A"/>
<rect x="4" y="11" width="1" height="1" fill="#ECBF2A"/>
<rect x="6" y="11" width="1" height="1" fill="#ECBF2A"/>
<rect x="7" y="11" width="1" height="1" fill="#ECBF2A"/>
<rect x="8" y="11" width="1" height="1" fill="#ECBF2A"/>
<rect x="9" y="11" width="1" height="1" fill="#ECBF2A"/>
<rect x="5" width="1" height="1" fill="#ECBF2A"/>
<rect x="6" width="1" height="1" fill="#ECBF2A"/>
<rect x="7" width="1" height="1" fill="#ECBF2A"/>
<rect x="8" width="1" height="1" fill="#ECBF2A"/>
<rect x="9" width="1" height="1" fill="#ECBF2A"/>
<rect x="10" y="8" width="1" height="1" fill="#ECBF2A"/>
<rect x="10" y="10" width="1" height="1" fill="#ECBF2A"/>
<rect x="10" y="7" width="1" height="1" fill="#ECBF2A"/>
<rect x="10" y="9" width="1" height="1" fill="#ECBF2A"/>
<rect x="10" y="6" width="1" height="1" fill="#ECBF2A"/>
<rect x="10" y="5" width="1" height="1" fill="#ECBF2A"/>
<rect x="10" y="4" width="1" height="1" fill="#ECBF2A"/>
<rect x="10" y="3" width="1" height="1" fill="#ECBF2A"/>
<rect x="10" width="1" height="1" fill="#ECBF2A"/>
<rect x="11" width="1" height="1" fill="#ECBF2A"/>
<rect x="11" y="3" width="1" height="1" fill="#ECBF2A"/>
<rect x="12" width="1" height="1" fill="#ECBF2A"/>
<rect x="12" y="3" width="1" height="1" fill="#ECBF2A"/>
</svg>
