<svg width="14" height="14" viewBox="0 0 14 14" fill="none" xmlns="http://www.w3.org/2000/svg">
<path d="M0 6.50021L0 7.50018H0.999972L0.999972 6.50021H0Z" fill="#B3BEFF"/>
<path d="M13.9993 7.50029L13.9993 6.50032L12.9993 6.50032L12.9993 7.50029L13.9993 7.50029Z" fill="#B3BEFF"/>
<path d="M1 6.50021V7.50018H1.99997V6.50021H1Z" fill="#B3BEFF"/>
<path d="M12.9998 7.50029L12.9998 6.50032L11.9998 6.50032L11.9998 7.50029L12.9998 7.50029Z" fill="#B3BEFF"/>
<path d="M2 5.50035V6.50032H2.99997V5.50035H2Z" fill="#B3BEFF"/>
<path d="M11.999 8.50016L11.999 7.50018L10.9991 7.50018L10.9991 8.50016L11.999 8.50016Z" fill="#B3BEFF"/>
<path d="M3.00024 6.50021V7.50018H4.00022V6.50021H3.00024Z" fill="#B3BEFF"/>
<path d="M11.0002 7.50029L11.0002 6.50032L10.0003 6.50032L10.0003 7.50029L11.0002 7.50029Z" fill="#B3BEFF"/>
<path d="M2 7.50009V8.50006H2.99997V7.50009H2Z" fill="#B3BEFF"/>
<path d="M11.999 6.50043L11.999 5.50046L10.9991 5.50046L10.9991 6.50043L11.999 6.50043Z" fill="#B3BEFF"/>
<path d="M7.499 0.000396772L6.49902 0.000396729L6.49902 1.00037L7.499 1.00037L7.499 0.000396772Z" fill="#B3BEFF"/>
<path d="M6.49978 14.0001L7.49976 14.0001L7.49976 13.0001L6.49978 13.0001L6.49978 14.0001Z" fill="#B3BEFF"/>
<path d="M7.499 1.00026L6.49902 1.00026L6.49902 2.00023L7.499 2.00023L7.499 1.00026Z" fill="#B3BEFF"/>
<path d="M6.49978 13.0003L7.49976 13.0003L7.49976 12.0003L6.49978 12.0003L6.49978 13.0003Z" fill="#B3BEFF"/>
<path d="M8.49973 2.00012L7.49976 2.00012L7.49976 3.00009L8.49973 3.00009L8.49973 2.00012Z" fill="#B3BEFF"/>
<path d="M5.49905 11.9998L6.49902 11.9998L6.49902 10.9999L5.49905 10.9999L5.49905 11.9998Z" fill="#B3BEFF"/>
<path d="M7.499 3.00053L6.49902 3.00053L6.49902 4.00051L7.499 4.00051L7.499 3.00053Z" fill="#B3BEFF"/>
<path d="M6.49978 11L7.49976 11L7.49976 10L6.49978 10L6.49978 11Z" fill="#B3BEFF"/>
<path d="M6.49997 2.00012L5.5 2.00012L5.5 3.00009L6.49997 3.00009L6.49997 2.00012Z" fill="#B3BEFF"/>
<path d="M7.50027 11.9998L8.50024 11.9998L8.50024 10.9999L7.50027 10.9999L7.50027 11.9998Z" fill="#B3BEFF"/>
<path d="M5 4.99991L5 8.99991L9 8.99991L9 4.99991L5 4.99991Z" fill="#5B6EDD"/>
<path d="M10 7L10 6.00003L9.00003 6.00003L9.00003 7L10 7Z" fill="#B3BEFF"/>
<path d="M9 6.00012L9 5.00015L8.00003 5.00015L8.00003 6.00012L9 6.00012Z" fill="#B3BEFF"/>
<path d="M10 8.0004L10 7.00043L9.00003 7.00043L9.00003 8.0004L10 8.0004Z" fill="#B3BEFF"/>
<path d="M8 10.0001L8 9.00015L7.00003 9.00015L7.00003 10.0001L8 10.0001Z" fill="#B3BEFF"/>
<path d="M9 9.00026L9 8.00029L8.00003 8.00029L8.00003 9.00026L9 9.00026Z" fill="#B3BEFF"/>
<path d="M5 8.00018L5 9.00015L5.99997 9.00015L5.99997 8.00018L5 8.00018Z" fill="#B3BEFF"/>
<path d="M5 5.00006L5 6.00003L5.99997 6.00003L5.99997 5.00006L5 5.00006Z" fill="#B3BEFF"/>
<path d="M3.99976 7.00032L3.99976 8.00029L4.99973 8.00029L4.99973 7.00032L3.99976 7.00032Z" fill="#B3BEFF"/>
<path d="M3.99976 6.00045L3.99976 7.00043L4.99973 7.00043L4.99973 6.00046L3.99976 6.00045Z" fill="#B3BEFF"/>
<path d="M7.00095 4.00029L6.00098 4.00029L6.00098 5.00026L7.00095 5.00026L7.00095 4.00029Z" fill="#B3BEFF"/>
<path d="M7.99997 4.00029L7 4.00029L7 5.00026L7.99997 5.00026L7.99997 4.00029Z" fill="#B3BEFF"/>
<path d="M10 7L10 6.00003L9.00003 6.00003L9.00003 7L10 7Z" fill="#B3BEFF"/>
<path d="M9 6.00012L9 5.00015L8.00003 5.00015L8.00003 6.00012L9 6.00012Z" fill="#B3BEFF"/>
<path d="M10 8.0004L10 7.00043L9.00003 7.00043L9.00003 8.0004L10 8.0004Z" fill="#B3BEFF"/>
<path d="M8 10.0001L8 9.00015L7.00003 9.00015L7.00003 10.0001L8 10.0001Z" fill="#B3BEFF"/>
<path d="M7 10.0001L7 9.00015L6.00003 9.00015L6.00003 10.0001L7 10.0001Z" fill="#B3BEFF"/>
<path d="M9 9.00026L9 8.00029L8.00003 8.00029L8.00003 9.00026L9 9.00026Z" fill="#B3BEFF"/>
<path d="M5 8.00018L5 9.00015L5.99997 9.00015L5.99997 8.00018L5 8.00018Z" fill="#B3BEFF"/>
<path d="M5 5.00006L5 6.00003L5.99997 6.00003L5.99997 5.00006L5 5.00006Z" fill="#B3BEFF"/>
<path d="M3.99976 7.00032L3.99976 8.00029L4.99973 8.00029L4.99973 7.00032L3.99976 7.00032Z" fill="#B3BEFF"/>
<path d="M3.99976 6.00045L3.99976 7.00043L4.99973 7.00043L4.99973 6.00046L3.99976 6.00045Z" fill="#B3BEFF"/>
<path d="M7.00095 4.00029L6.00098 4.00029L6.00098 5.00026L7.00095 5.00026L7.00095 4.00029Z" fill="#B3BEFF"/>
<path d="M7.99997 4.00029L7 4.00029L7 5.00026L7.99997 5.00026L7.99997 4.00029Z" fill="#B3BEFF"/>
</svg>
