<svg width="18" height="18" viewBox="0 0 18 18" fill="none" xmlns="http://www.w3.org/2000/svg">
<rect x="3.92383" y="3" width="3.69231" height="4.61538" fill="#8F9DED"/>
<rect x="3.92383" y="9.46158" width="3.69231" height="4.61538" fill="#FF8989"/>
<rect x="10.3828" y="3" width="3.69231" height="4.61538" fill="#9CFFAA"/>
<rect x="10.3828" y="9.46158" width="3.69231" height="4.61538" fill="#ECBF2A"/>
<rect x="3.92383" y="7.61542" width="3.69231" height="0.923077" fill="#8F9DED"/>
<rect x="3.92383" y="14.0768" width="3.69231" height="0.923077" fill="#FF8989"/>
<rect x="10.3828" y="7.61542" width="3.69231" height="0.923077" fill="#9CFFAA"/>
<rect x="10.3828" y="14.0768" width="3.69231" height="0.923077" fill="#ECBF2A"/>
<rect x="3" y="7.61542" width="3.69231" height="0.923077" transform="rotate(-90 3 7.61542)" fill="#8F9DED"/>
<rect x="3" y="14.0768" width="3.69231" height="0.923077" transform="rotate(-90 3 14.0768)" fill="#FF8989"/>
<rect x="9.45898" y="7.61542" width="3.69231" height="0.923077" transform="rotate(-90 9.45898 7.61542)" fill="#9CFFAA"/>
<rect x="9.45898" y="14.0768" width="3.69231" height="0.923077" transform="rotate(-90 9.45898 14.0768)" fill="#ECBF2A"/>
<rect x="7.61719" y="7.61542" width="3.69231" height="0.923077" transform="rotate(-90 7.61719 7.61542)" fill="#8F9DED"/>
<rect x="7.61719" y="14.0768" width="3.69231" height="0.923077" transform="rotate(-90 7.61719 14.0768)" fill="#FF8989"/>
<rect x="14.0762" y="7.61542" width="3.69231" height="0.923077" transform="rotate(-90 14.0762 7.61542)" fill="#9CFFAA"/>
<rect x="14.0762" y="14.0768" width="3.69231" height="0.923077" transform="rotate(-90 14.0762 14.0768)" fill="#ECBF2A"/>
</svg>
