<svg width="13" height="13" viewBox="0 0 13 13" fill="none" xmlns="http://www.w3.org/2000/svg">
<path d="M3 1L3 12L10 12L10 1L3 1Z" fill="#9CFFAA"/>
<path d="M1 10L12 10L12 3L0.999999 3L1 10Z" fill="#9CFFAA"/>
<path d="M3 6L3 7L4 7L4 6L3 6Z" fill="#0A0C0E"/>
<path d="M4 7L4 8L5 8L5 7L4 7Z" fill="#0A0C0E"/>
<path d="M6 7L6 8L7 8L7 7L6 7Z" fill="#0A0C0E"/>
<path d="M7 6L7 7L8 7L8 6L7 6Z" fill="#0A0C0E"/>
<path d="M8 5L8 6L9 6L9 5L8 5Z" fill="#0A0C0E"/>
<path d="M9 4L9 5L10 5L10 4L9 4Z" fill="#0A0C0E"/>
<path d="M5 8L5 9L6 9L6 8L5 8Z" fill="#0A0C0E"/>
<path d="M5 -1.19209e-07L5 1L8 1L8 2.20646e-08L5 -1.19209e-07Z" fill="#49B667"/>
<path d="M3 1L3 2L5 2L5 1L3 1Z" fill="#49B667"/>
<path d="M2 2L2 3L3 3L3 2L2 2Z" fill="#49B667"/>
<path d="M1 3L1 5L2 5L2 3L1 3Z" fill="#49B667"/>
<path d="M1 5H0L-1.95516e-08 8H1L1 5Z" fill="#49B667"/>
<path d="M10 1L10 2L8 2L8 1L10 1Z" fill="#49B667"/>
<path d="M11 2L11 3L10 3L10 2L11 2Z" fill="#49B667"/>
<path d="M12 3L12 5L11 5L11 3L12 3Z" fill="#49B667"/>
<path d="M12 5H13L13 8H12L12 5Z" fill="#49B667"/>
<path d="M8 13L8 12L5 12L5 13L8 13Z" fill="#49B667"/>
<path d="M10 12L10 11L8 11L8 12L10 12Z" fill="#49B667"/>
<path d="M11 11L11 10L10 10L10 11L11 11Z" fill="#49B667"/>
<path d="M12 10L12 8L11 8L11 10L12 10Z" fill="#49B667"/>
<path d="M3 12L3 11L5 11L5 12L3 12Z" fill="#49B667"/>
<path d="M2 11L2 10L3 10L3 11L2 11Z" fill="#49B667"/>
<path d="M1 10L1 8L2 8L2 10L1 10Z" fill="#49B667"/>
</svg>
