<svg width="15" height="15" viewBox="0 0 15 15" fill="none" xmlns="http://www.w3.org/2000/svg">
<path fill-rule="evenodd" clip-rule="evenodd" d="M15 7.5C15 11.6421 11.6421 15 7.5 15C3.35786 15 0 11.6421 0 7.5C0 3.35786 3.35786 0 7.5 0C11.6421 0 15 3.35786 15 7.5ZM6.7 7.3C6.7 6.85817 7.05817 6.5 7.5 6.5C7.94183 6.5 8.3 6.85817 8.3 7.3V10.7C8.3 11.1418 7.94183 11.5 7.5 11.5C7.05817 11.5 6.7 11.1418 6.7 10.7V7.3ZM7.5 3.5C6.94772 3.5 6.5 3.94772 6.5 4.5C6.5 5.05228 6.94772 5.5 7.5 5.5C8.05229 5.5 8.5 5.05228 8.5 4.5C8.5 3.94772 8.05229 3.5 7.5 3.5Z" fill="#A7ABAE"/>
</svg>
